<svg width="419" height="237" viewBox="0 0 419 237" fill="none" xmlns="http://www.w3.org/2000/svg">
<path d="M118.718 0.00537109C103.128 0.00537086 87.6901 3.06778 73.2867 9.01774C58.8834 14.9677 45.7961 23.6887 34.7723 34.6828C23.7484 45.6769 15.0038 58.7287 9.03774 73.0932C3.07167 87.4577 0.000976563 102.853 0.000976562 118.401C0.000976562 133.949 3.07167 149.345 9.03774 163.71C15.0038 178.074 23.7484 191.126 34.7723 202.12C45.7961 213.114 58.8834 221.835 73.2867 227.785C87.6901 233.735 103.128 236.797 118.718 236.797C134.308 236.797 149.745 233.735 164.149 227.785C178.552 221.835 191.639 213.114 202.663 202.12C213.687 191.126 222.431 178.074 228.398 163.71C234.364 149.345 237.434 133.949 237.434 118.401C237.434 102.853 234.364 87.4577 228.398 73.0932C222.431 58.7287 213.687 45.6769 202.663 34.6828C191.639 23.6887 178.552 14.9677 164.149 9.01774C149.745 3.06778 134.308 0.00537086 118.718 0.00537109ZM307.268 13.9343C299.931 13.9343 292.666 16.6364 285.888 21.8864C279.11 27.1364 272.952 34.8314 267.764 44.532C262.576 54.2327 258.461 65.7491 255.654 78.4236C252.846 91.0981 251.401 104.683 251.401 118.401C251.401 132.12 252.846 145.705 255.654 158.379C258.461 171.054 262.576 182.57 267.764 192.271C272.952 201.971 279.11 209.666 285.888 214.916C292.666 220.166 299.931 222.869 307.268 222.869C314.604 222.869 321.869 220.166 328.647 214.916C335.425 209.666 341.584 201.971 346.771 192.271C351.959 182.57 356.074 171.054 358.882 158.379C361.689 145.705 363.134 132.12 363.134 118.401C363.134 104.683 361.689 91.0981 358.882 78.4236C356.074 65.7491 351.959 54.2327 346.771 44.532C341.584 34.8314 335.425 27.1364 328.647 21.8864C321.869 16.6364 314.604 13.9343 307.268 13.9343ZM398.051 27.8633C392.495 27.8633 387.166 37.4021 383.237 54.3813C379.308 71.3605 377.101 94.3892 377.101 118.401C377.101 142.414 379.308 165.442 383.237 182.422C387.166 199.401 392.495 208.94 398.051 208.94C403.607 208.94 408.936 199.401 412.865 182.422C416.794 165.442 419.001 142.414 419.001 118.401C419.001 94.3892 416.794 71.3605 412.865 54.3813C408.936 37.4021 403.607 27.8633 398.051 27.8633Z" fill="#1D1D1D"/>
</svg>
