<svg width="50" height="24" viewBox="0 0 50 24" fill="none" xmlns="http://www.w3.org/2000/svg">
<g clip-path="url(#clip0_1905_6947)">
<path d="M21.9328 0.489082C22.9089 0.21775 23.9388 0.0799999 24.9999 0.0799999C29.2641 0.0799999 33.0083 2.35704 35.0797 5.77722C33.3762 4.83614 31.4202 4.3043 29.3427 4.3043C28.9095 4.3043 28.4793 4.32574 28.059 4.37593C22.4562 4.97055 18.0083 9.45504 17.4189 15.088C17.3692 15.5106 17.3479 15.9433 17.3479 16.379C17.3479 18.471 17.8766 20.441 18.8125 22.1568C15.4311 20.064 13.1711 16.2953 13.1711 11.9982C13.1711 10.9281 13.3079 9.89032 13.5777 8.90592C14.6644 4.80677 17.8681 1.58211 21.9328 0.489082Z" fill="white" stroke="#151515" stroke-width="0.2"/>
<path d="M21.9377 23.511C20.9332 23.2414 19.9864 22.843 19.1058 22.3265C18.0961 20.5766 17.5217 18.5428 17.5217 16.3753C17.5217 15.9964 17.538 15.6207 17.5752 15.2529C19.6136 16.8816 22.1959 17.8516 25.0006 17.8516C26.6995 17.8516 28.3133 17.4972 29.7777 16.853C33.0053 15.4449 35.4965 12.6467 36.5053 9.21072C36.7228 10.1037 36.8333 11.038 36.8365 11.9983C36.8363 18.5852 31.5351 23.9199 25.0042 23.9199C23.943 23.9199 22.9139 23.7823 21.9377 23.511Z" fill="white" stroke="#151515" stroke-width="0.2"/>
<path d="M36.4216 8.88584C35.5003 12.3372 33.0747 15.1671 29.9019 16.6208C30.4932 15.1977 30.8151 13.6338 30.8151 11.9983C30.8151 9.17192 29.8495 6.57237 28.2302 4.51508C28.5962 4.47735 28.9701 4.46086 29.3474 4.46086C31.4964 4.46086 33.5133 5.03844 35.2495 6.05439C35.7629 6.93274 36.1571 7.88332 36.4216 8.88584Z" fill="white" stroke="#151515" stroke-width="0.2"/>
<path d="M9.8749 12.0018C9.8749 9.04576 10.7146 6.28515 12.1609 3.95088C6.21653 7.02061 2.25124 11.1669 0.000488281 13.9559C1.41867 15.9314 3.89169 18.8376 7.75467 21.0973C10.3724 22.6286 13.064 23.5239 15.6852 23.9965C12.1503 21.2074 9.8749 16.8729 9.8749 12.0018Z" fill="white"/>
<path d="M50.0005 10.0442C48.5823 8.06872 46.1092 5.16242 42.2463 2.90631C39.6286 1.37501 36.9369 0.479669 34.3157 0.00712967C37.8506 2.79618 40.1261 7.13075 40.1261 12.0018C40.1261 14.9578 39.2864 17.7185 37.84 20.0527C43.7844 16.983 47.7497 12.8332 50.0005 10.0442Z" fill="white"/>
</g>
<defs>
<clipPath id="clip0_1905_6947">
<rect width="50" height="24" fill="white" transform="translate(0.000488281)"/>
</clipPath>
</defs>
</svg>
